<svg id="svg" version="1.1" width="1000" height="712" xmlns="http://www.w3.org/2000/svg" xmlns:xlink="http://www.w3.org/1999/xlink" style="display: block;"><g id="svgg"><path id="path0" d="M321.123 0.271 C 320.750 0.370,320.273 1.024,320.061 1.725 C 319.849 2.426,318.720 6.267,317.551 10.259 L 315.426 17.518 307.813 22.138 C 300.753 26.421,300.203 26.838,300.244 27.878 C 300.269 28.495,300.516 31.385,300.794 34.300 L 301.300 39.600 306.350 39.591 L 311.400 39.582 315.600 35.728 C 317.910 33.609,321.040 30.707,322.556 29.280 L 325.312 26.685 325.065 23.213 C 324.901 20.895,324.966 19.594,325.262 19.298 C 325.568 18.992,325.650 16.445,325.526 11.040 C 325.329 2.474,325.257 2.218,322.744 1.177 C 321.871 0.815,321.689 0.590,322.073 0.346 C 322.624 -0.003,322.270 -0.031,321.123 0.271 M351.461 59.256 L 347.192 64.553 348.423 65.823 C 350.904 68.384,351.209 68.385,354.260 65.853 C 356.920 63.645,357.024 63.600,359.477 63.600 L 361.981 63.600 359.359 59.300 C 357.918 56.935,356.511 54.766,356.234 54.479 C 355.824 54.055,354.932 54.947,351.461 59.256 M389.083 70.517 C 389.216 71.181,389.812 73.601,390.407 75.897 L 391.489 80.070 394.434 83.034 L 397.378 85.998 397.908 84.987 C 398.200 84.431,398.607 84.081,398.814 84.209 C 399.021 84.337,399.092 84.183,398.971 83.867 C 398.849 83.552,399.031 82.620,399.375 81.798 C 400.416 79.307,400.276 70.403,399.200 70.684 C 398.742 70.804,398.400 70.696,398.400 70.433 C 398.400 70.107,398.181 70.089,397.655 70.370 C 397.119 70.657,396.699 70.609,396.155 70.197 C 395.275 69.531,394.644 69.423,395.000 70.000 C 395.136 70.220,394.977 70.400,394.647 70.400 C 394.317 70.400,393.941 70.228,393.811 70.017 C 393.681 69.807,393.353 69.720,393.083 69.823 C 392.813 69.927,391.749 69.854,390.717 69.661 L 388.842 69.311 389.083 70.517 M233.590 84.100 C 233.348 85.035,232.547 87.960,231.810 90.600 C 231.073 93.240,229.829 97.740,229.045 100.600 C 228.261 103.460,226.726 109.040,225.634 113.000 C 224.542 116.960,222.634 123.890,221.394 128.400 C 219.161 136.523,217.324 143.163,214.420 153.600 C 213.593 156.570,212.216 161.586,211.359 164.748 C 210.501 167.909,209.612 170.569,209.382 170.659 C 209.151 170.749,204.250 168.582,198.489 165.842 L 188.014 160.861 187.632 162.331 C 187.422 163.139,185.866 169.470,184.176 176.400 C 181.122 188.921,175.004 213.921,172.186 225.400 C 171.376 228.700,170.713 231.760,170.713 232.200 C 170.712 232.916,178.880 254.781,187.373 276.800 C 188.095 278.670,189.014 281.139,189.417 282.287 C 190.310 284.834,190.915 284.992,198.200 284.582 C 200.840 284.434,205.793 284.230,209.208 284.130 L 215.416 283.947 216.104 282.748 C 216.483 282.088,216.972 281.659,217.192 281.795 C 217.416 281.933,217.494 281.790,217.371 281.468 C 217.249 281.152,217.723 280.081,218.424 279.087 C 219.938 276.939,219.946 276.957,216.389 274.593 C 214.785 273.526,213.706 272.551,213.859 272.305 C 214.014 272.054,213.936 271.993,213.669 272.157 C 213.104 272.507,210.292 270.652,210.702 270.200 C 210.866 270.020,210.820 269.970,210.600 270.089 C 210.380 270.209,209.570 269.877,208.800 269.352 C 208.030 268.827,206.680 267.921,205.800 267.339 C 204.920 266.757,204.110 266.164,204.000 266.021 C 203.890 265.878,202.944 265.267,201.897 264.662 C 200.345 263.766,200.031 263.400,200.194 262.681 C 200.933 259.420,201.113 258.239,200.941 257.791 C 200.834 257.511,200.938 257.162,201.174 257.016 C 201.410 256.870,201.493 256.312,201.358 255.775 C 201.223 255.239,201.268 254.800,201.457 254.800 C 201.645 254.800,201.820 254.305,201.844 253.700 C 201.933 251.490,202.227 249.389,202.511 248.936 C 202.672 248.681,202.700 248.204,202.574 247.877 C 202.448 247.549,202.514 247.177,202.719 247.050 C 202.925 246.923,203.006 246.365,202.900 245.810 C 202.794 245.254,202.866 244.800,203.060 244.800 C 203.255 244.800,203.387 243.988,203.353 242.995 C 203.320 242.002,203.455 241.090,203.653 240.967 C 203.851 240.845,203.920 240.594,203.806 240.409 C 203.691 240.224,203.943 238.321,204.364 236.179 C 204.786 234.037,205.037 232.042,204.924 231.745 C 204.810 231.449,205.021 231.090,205.392 230.948 C 205.842 230.775,205.917 230.596,205.617 230.410 C 205.297 230.213,205.278 229.633,205.552 228.417 C 205.764 227.473,205.849 226.472,205.741 226.191 C 205.634 225.911,205.738 225.562,205.974 225.416 C 206.210 225.270,206.293 224.712,206.158 224.175 C 206.023 223.639,206.088 223.200,206.301 223.200 C 206.515 223.200,206.603 222.750,206.498 222.200 C 206.393 221.650,206.483 221.200,206.698 221.200 C 206.913 221.200,206.998 220.723,206.887 220.141 C 206.766 219.510,206.841 219.178,207.073 219.321 C 207.307 219.466,207.428 218.816,207.377 217.681 C 207.281 215.535,207.800 214.238,208.626 214.555 C 208.936 214.674,209.148 214.577,209.095 214.340 C 208.990 213.865,213.645 210.396,214.058 210.642 C 214.200 210.726,214.411 210.549,214.527 210.247 C 214.642 209.946,216.052 208.772,217.660 207.640 C 220.962 205.313,221.068 205.358,221.012 209.049 C 220.993 210.232,221.142 211.200,221.342 211.200 C 221.541 211.200,221.602 211.830,221.477 212.600 C 221.339 213.454,221.414 214.000,221.670 214.000 C 221.930 214.000,221.992 214.518,221.832 215.369 C 221.691 216.122,221.745 216.842,221.951 216.970 C 222.158 217.098,222.281 218.288,222.225 219.616 C 222.169 220.943,222.276 222.123,222.462 222.238 C 222.648 222.353,222.800 222.807,222.800 223.247 C 222.800 223.719,222.623 223.938,222.367 223.780 C 222.129 223.632,222.232 224.088,222.596 224.792 C 222.960 225.496,223.169 226.303,223.061 226.584 C 222.953 226.866,223.210 229.325,223.633 232.048 C 224.055 234.772,224.296 237.495,224.168 238.100 C 224.028 238.764,224.108 239.200,224.368 239.200 C 224.606 239.200,224.800 239.560,224.800 240.000 C 224.800 240.440,224.620 240.800,224.400 240.800 C 224.180 240.800,224.013 241.295,224.028 241.900 C 224.054 242.895,224.093 242.923,224.435 242.200 C 224.727 241.586,224.772 241.748,224.632 242.900 C 224.522 243.811,224.618 244.400,224.877 244.400 C 225.142 244.400,225.219 244.931,225.079 245.793 C 224.954 246.559,225.021 247.289,225.226 247.416 C 225.754 247.742,225.692 249.200,225.151 249.200 C 224.859 249.200,224.894 249.432,225.251 249.861 C 225.553 250.225,225.832 251.170,225.871 251.961 C 225.987 254.307,226.339 258.584,226.433 258.800 C 226.481 258.910,226.570 259.540,226.629 260.200 C 227.009 264.388,227.248 265.733,227.806 266.811 C 228.151 267.478,228.325 268.198,228.193 268.412 C 228.061 268.625,228.134 268.800,228.355 268.800 C 228.791 268.800,231.864 274.401,231.700 274.897 C 231.645 275.064,231.780 275.200,232.000 275.200 C 232.220 275.200,232.400 275.353,232.400 275.540 C 232.400 275.727,233.309 277.553,234.420 279.598 C 235.532 281.643,236.344 283.570,236.225 283.879 C 236.106 284.188,236.175 284.339,236.377 284.214 C 236.579 284.089,236.858 284.170,236.996 284.393 C 237.161 284.661,245.157 284.800,260.427 284.800 L 283.607 284.800 285.403 281.057 C 287.654 276.368,287.656 276.390,284.980 275.078 C 283.582 274.392,282.864 273.820,283.042 273.533 C 283.212 273.257,283.146 273.186,282.876 273.353 C 282.630 273.505,281.207 272.961,279.714 272.143 C 275.447 269.806,274.782 269.353,275.101 269.001 C 275.266 268.820,275.179 268.799,274.910 268.954 C 274.634 269.112,272.706 268.263,270.510 267.015 C 265.187 263.991,265.388 264.126,265.495 263.652 C 265.548 263.419,265.318 263.333,264.985 263.461 C 264.652 263.589,263.669 263.222,262.799 262.647 C 261.929 262.071,261.033 261.600,260.809 261.600 C 260.584 261.600,260.400 261.409,260.400 261.176 C 260.400 260.943,260.220 260.864,260.000 261.000 C 259.428 261.353,259.498 260.800,260.380 257.965 C 260.809 256.587,261.076 255.323,260.973 255.157 C 260.871 254.991,260.962 254.747,261.176 254.615 C 261.390 254.483,261.464 254.110,261.340 253.787 C 261.216 253.464,261.275 253.200,261.470 253.200 C 261.666 253.200,261.800 252.705,261.767 252.100 C 261.734 251.495,261.807 250.828,261.928 250.618 C 262.049 250.408,262.208 249.688,262.281 249.018 C 262.354 248.348,262.581 247.743,262.784 247.674 C 262.988 247.605,263.056 247.290,262.935 246.974 C 262.814 246.658,262.881 246.400,263.084 246.400 C 263.288 246.400,263.405 245.770,263.344 245.000 C 263.283 244.230,263.417 243.600,263.640 243.600 C 263.864 243.600,263.940 243.426,263.808 243.214 C 263.677 243.001,263.877 241.786,264.253 240.514 C 264.628 239.241,264.916 237.885,264.893 237.500 C 264.869 237.115,264.980 236.800,265.139 236.800 C 265.298 236.800,265.442 236.485,265.458 236.100 C 265.525 234.483,265.982 231.985,266.600 229.861 C 266.962 228.612,267.327 227.061,267.409 226.412 C 267.642 224.565,268.519 221.830,268.981 221.506 C 269.247 221.320,269.199 221.210,268.851 221.206 C 268.437 221.202,268.412 221.068,268.748 220.663 C 268.993 220.368,269.060 219.993,268.897 219.830 C 268.734 219.668,268.950 219.279,269.377 218.967 C 269.804 218.655,269.961 218.400,269.726 218.400 C 269.492 218.400,269.300 217.950,269.300 217.400 C 269.300 216.850,269.468 216.400,269.674 216.400 C 269.879 216.400,269.943 216.231,269.815 216.024 C 269.537 215.574,270.811 210.800,271.210 210.800 C 271.364 210.800,271.420 210.170,271.335 209.400 C 271.251 208.630,271.327 208.000,271.505 208.000 C 271.683 208.000,271.853 207.685,271.883 207.300 C 271.913 206.915,271.979 206.015,272.030 205.300 C 272.092 204.417,272.327 203.998,272.761 203.994 C 273.188 203.990,273.247 203.890,272.937 203.693 C 272.425 203.368,272.684 201.200,273.234 201.200 C 273.422 201.200,273.471 200.930,273.345 200.600 C 273.212 200.255,273.337 200.000,273.637 200.000 C 274.044 200.000,274.053 199.893,273.680 199.520 C 273.143 198.983,272.984 190.181,273.505 189.858 C 273.673 189.755,273.852 178.285,273.901 164.371 C 273.983 141.406,274.053 139.004,274.658 138.336 C 275.024 137.931,277.141 136.396,279.362 134.925 C 281.583 133.453,284.335 131.565,285.478 130.729 C 286.754 129.794,287.801 129.302,288.194 129.453 C 288.572 129.598,288.785 129.511,288.716 129.238 C 288.652 128.986,290.481 127.444,292.779 125.812 L 296.958 122.846 299.879 122.971 C 301.486 123.040,302.800 122.940,302.800 122.748 C 302.800 122.557,303.205 122.403,303.700 122.406 C 304.428 122.411,304.485 122.486,304.000 122.800 C 303.037 123.422,303.927 123.258,305.263 122.567 C 305.973 122.200,306.895 122.038,307.461 122.180 C 307.998 122.314,308.654 122.284,308.918 122.112 C 309.428 121.782,310.817 121.651,315.462 121.497 C 317.036 121.444,318.238 121.261,318.131 121.089 C 318.025 120.917,318.627 120.790,319.469 120.806 C 321.240 120.840,323.265 120.650,330.018 119.814 C 332.699 119.482,335.069 119.319,335.285 119.452 C 335.500 119.585,336.113 119.461,336.646 119.175 C 337.391 118.776,337.726 118.766,338.088 119.128 C 338.348 119.388,339.019 119.597,339.580 119.594 C 340.412 119.589,340.489 119.509,340.000 119.161 C 339.547 118.838,339.765 118.784,340.893 118.941 C 341.714 119.054,342.497 118.967,342.633 118.746 C 342.769 118.526,343.133 118.442,343.440 118.560 C 343.748 118.678,344.000 118.621,344.000 118.433 C 344.000 118.109,347.227 117.388,348.300 117.472 C 348.575 117.494,348.800 117.372,348.800 117.202 C 348.800 116.664,350.312 116.473,350.825 116.946 C 352.259 118.268,350.289 115.805,347.307 112.549 L 343.964 108.897 331.282 106.442 C 324.307 105.092,318.064 103.849,317.408 103.681 C 316.427 103.429,314.936 101.585,309.008 93.299 C 305.044 87.758,301.610 83.038,301.378 82.810 C 300.995 82.435,298.509 88.008,292.966 101.669 L 291.883 104.338 289.242 104.792 C 287.789 105.041,282.280 106.046,277.000 107.025 C 271.720 108.003,264.880 109.268,261.800 109.836 C 258.720 110.404,255.826 110.955,255.369 111.060 C 254.662 111.223,253.034 109.105,244.429 96.826 C 232.992 80.505,234.165 81.882,233.590 84.100 M90.828 157.300 C 90.202 158.675,88.749 161.780,87.600 164.200 C 86.451 166.620,83.634 172.648,81.340 177.596 C 79.045 182.544,77.034 186.726,76.871 186.889 C 76.708 187.052,73.188 184.926,69.049 182.164 C 64.910 179.402,61.464 177.203,61.390 177.277 C 61.248 177.419,56.767 185.883,52.113 194.800 C 50.563 197.770,45.559 207.310,40.994 216.000 C 36.429 224.690,31.844 233.420,30.804 235.400 C 29.763 237.380,26.706 243.196,24.010 248.325 L 19.107 257.651 24.295 271.125 L 29.483 284.600 44.103 284.705 L 58.723 284.810 60.689 282.305 C 61.770 280.927,63.059 279.215,63.554 278.500 L 64.454 277.201 62.437 275.946 C 61.327 275.257,60.533 274.509,60.671 274.284 C 60.813 274.055,60.727 273.998,60.476 274.153 C 60.043 274.420,57.211 272.795,52.200 269.404 C 50.468 268.232,49.668 267.392,49.327 266.390 C 48.160 262.965,44.513 253.229,44.330 253.050 C 44.026 252.753,45.328 251.632,45.707 251.866 C 45.943 252.012,46.005 251.931,45.850 251.681 C 45.524 251.153,51.062 243.351,51.651 243.510 C 51.876 243.570,51.951 243.444,51.817 243.228 C 51.476 242.675,54.384 238.743,54.900 239.062 C 55.150 239.216,55.206 239.133,55.037 238.859 C 54.768 238.424,56.195 235.960,56.886 235.667 C 57.058 235.593,57.200 235.349,57.200 235.124 C 57.200 234.518,59.270 232.182,59.694 232.310 C 59.895 232.370,59.951 232.244,59.817 232.028 C 59.467 231.461,65.100 223.491,65.623 223.814 C 65.781 223.912,65.885 223.678,65.855 223.296 C 65.825 222.911,66.037 222.649,66.330 222.710 C 66.621 222.770,66.758 222.655,66.633 222.454 C 66.509 222.252,67.350 220.736,68.503 219.085 C 73.091 212.514,76.927 207.200,77.083 207.200 C 77.173 207.200,77.119 207.408,76.962 207.662 C 76.784 207.950,76.852 208.015,77.145 207.834 C 77.402 207.675,77.508 207.374,77.379 207.165 C 77.250 206.957,77.671 206.114,78.314 205.293 C 78.958 204.472,79.699 203.390,79.962 202.889 C 80.709 201.466,83.238 205.083,82.620 206.691 C 82.504 206.994,82.577 207.138,82.782 207.011 C 82.987 206.885,83.812 208.180,84.616 209.890 C 85.420 211.601,86.589 214.016,87.212 215.259 C 87.836 216.501,88.403 217.851,88.473 218.259 C 88.543 218.666,88.722 219.092,88.870 219.205 C 89.019 219.318,90.167 221.568,91.423 224.205 C 92.678 226.842,94.869 231.430,96.292 234.400 C 97.715 237.370,98.883 240.205,98.889 240.700 C 98.895 241.195,99.070 241.600,99.277 241.600 C 99.484 241.600,99.544 241.945,99.411 242.366 C 99.277 242.788,99.358 243.250,99.590 243.394 C 99.823 243.538,99.934 243.783,99.838 243.938 C 99.742 244.094,99.907 245.268,100.205 246.549 C 100.502 247.829,100.656 249.111,100.546 249.398 C 100.435 249.684,100.541 250.040,100.779 250.187 C 101.018 250.335,101.129 250.591,101.026 250.758 C 100.923 250.924,101.112 252.103,101.444 253.377 C 101.777 254.651,101.954 255.943,101.837 256.247 C 101.721 256.551,101.819 256.800,102.055 256.800 C 102.292 256.800,102.376 257.086,102.241 257.436 C 102.107 257.786,102.129 258.281,102.289 258.536 C 102.449 258.791,102.595 259.545,102.612 260.212 C 102.630 260.879,102.780 261.644,102.946 261.912 C 103.112 262.180,103.144 262.568,103.017 262.772 C 102.891 262.977,102.960 263.252,103.171 263.382 C 103.382 263.513,103.515 264.335,103.466 265.210 C 103.417 266.084,103.497 266.800,103.644 266.800 C 104.099 266.800,104.982 272.190,104.916 274.565 C 104.886 275.628,104.987 275.949,105.230 275.565 C 105.500 275.138,105.606 275.245,105.662 276.000 C 105.754 277.229,105.885 278.135,106.009 278.400 C 106.060 278.510,106.143 278.972,106.193 279.428 C 106.327 280.644,106.812 283.295,107.048 284.100 C 107.392 285.271,156.572 285.173,157.200 284.000 C 157.435 283.560,157.553 283.200,157.460 283.200 C 157.270 283.200,159.303 277.205,159.723 276.525 C 159.884 276.264,159.558 275.976,158.918 275.815 C 158.054 275.598,157.956 275.466,158.421 275.146 C 158.864 274.841,158.804 274.802,158.165 274.980 C 157.634 275.128,156.797 274.851,155.865 274.218 C 155.059 273.672,154.400 273.299,154.400 273.391 C 154.400 273.730,144.727 268.432,144.355 267.889 C 144.221 267.693,143.951 267.545,143.755 267.561 C 142.617 267.655,142.027 267.011,141.664 265.282 C 136.093 238.726,131.516 213.947,132.099 213.497 C 132.454 213.224,138.450 208.590,145.424 203.200 C 152.398 197.810,158.349 193.425,158.648 193.455 C 158.947 193.485,159.100 193.362,158.989 193.182 C 158.877 193.002,160.140 191.812,161.794 190.539 C 163.449 189.265,164.888 187.948,164.993 187.612 C 165.836 184.910,168.986 167.602,168.634 167.608 C 168.142 167.617,167.017 167.911,145.200 173.726 C 136.510 176.042,127.996 178.295,126.280 178.733 L 123.160 179.529 109.880 168.900 C 102.576 163.054,95.671 157.490,94.536 156.536 C 91.962 154.371,92.183 154.326,90.828 157.300 " stroke="none" fill="#e09e1a" fill-rule="evenodd"></path><path id="path1" d="M322.200 0.904 C 324.685 2.108,325.099 2.601,325.303 4.605 L 325.466 6.200 325.533 4.354 C 325.607 2.318,324.065 0.765,321.400 0.193 C 320.547 0.010,320.779 0.215,322.200 0.904 M324.893 20.800 C 324.893 21.570,324.975 21.885,325.076 21.500 C 325.176 21.115,325.176 20.485,325.076 20.100 C 324.975 19.715,324.893 20.030,324.893 20.800 M317.600 33.818 L 311.400 39.587 306.200 39.680 L 301.000 39.774 306.141 39.899 L 311.282 40.025 314.141 37.463 C 317.991 34.014,324.248 28.035,324.000 28.043 C 323.890 28.046,321.010 30.645,317.600 33.818 M300.093 29.600 C 300.093 30.370,300.175 30.685,300.276 30.300 C 300.376 29.915,300.376 29.285,300.276 28.900 C 300.175 28.515,300.093 28.830,300.093 29.600 M354.962 54.500 L 354.200 55.400 355.053 54.681 C 355.884 53.980,355.927 53.990,356.781 55.081 L 357.657 56.200 356.942 54.900 C 356.094 53.356,355.954 53.328,354.962 54.500 M350.800 59.600 C 349.018 61.800,347.651 63.600,347.761 63.600 C 347.871 63.600,349.418 61.800,351.200 59.600 C 352.982 57.400,354.349 55.600,354.239 55.600 C 354.129 55.600,352.582 57.400,350.800 59.600 M358.812 58.387 C 359.092 58.930,359.930 60.325,360.673 61.487 L 362.025 63.600 359.479 63.600 C 357.116 63.600,356.821 63.703,355.367 65.034 L 353.800 66.469 355.391 65.234 C 356.810 64.133,357.275 64.000,359.691 64.000 C 362.894 64.000,362.812 64.245,360.734 60.890 C 358.979 58.058,357.949 56.717,358.812 58.387 M347.039 64.337 C 346.925 64.522,347.499 65.287,348.316 66.037 L 349.800 67.400 348.493 65.974 C 347.774 65.189,347.309 64.424,347.460 64.274 C 347.610 64.123,347.624 64.000,347.490 64.000 C 347.357 64.000,347.154 64.151,347.039 64.337 M352.484 67.293 C 351.683 68.095,351.499 68.129,350.695 67.629 C 349.876 67.119,349.847 67.128,350.349 67.736 C 351.105 68.651,351.701 68.570,352.800 67.400 C 353.965 66.159,353.706 66.072,352.484 67.293 M393.800 70.000 C 393.936 70.220,394.317 70.400,394.647 70.400 C 394.977 70.400,395.136 70.220,395.000 70.000 C 394.864 69.780,394.483 69.600,394.153 69.600 C 393.823 69.600,393.664 69.780,393.800 70.000 M396.000 70.157 C 396.000 70.546,397.127 70.692,397.636 70.369 C 398.047 70.109,397.901 70.011,397.100 70.006 C 396.495 70.003,396.000 70.071,396.000 70.157 M390.480 77.000 C 390.480 77.440,390.624 78.250,390.800 78.800 C 391.054 79.592,391.120 79.633,391.120 79.000 C 391.120 78.560,390.976 77.750,390.800 77.200 C 390.546 76.408,390.480 76.367,390.480 77.000 M394.191 83.100 C 395.945 84.915,397.475 86.392,397.591 86.383 C 397.943 86.354,400.031 81.839,399.987 81.200 C 399.964 80.863,399.754 81.038,399.508 81.600 C 399.268 82.150,398.705 83.371,398.258 84.313 L 397.445 86.027 394.222 82.913 L 391.000 79.800 394.191 83.100 M300.584 82.427 C 300.439 82.661,300.428 82.961,300.560 83.093 C 300.692 83.225,300.800 83.095,300.800 82.805 C 300.800 82.439,301.064 82.511,301.657 83.038 C 302.510 83.797,302.511 83.797,301.960 82.900 C 301.351 81.908,300.983 81.781,300.584 82.427 M236.400 85.400 C 237.081 86.390,237.728 87.200,237.838 87.200 C 237.948 87.200,237.481 86.390,236.800 85.400 C 236.119 84.410,235.472 83.600,235.362 83.600 C 235.252 83.600,235.719 84.410,236.400 85.400 M299.665 84.617 C 298.995 86.088,299.123 86.402,299.847 85.065 C 300.186 84.440,300.388 83.854,300.296 83.763 C 300.205 83.671,299.921 84.056,299.665 84.617 M303.280 85.300 C 303.816 86.015,306.015 89.075,308.166 92.100 C 310.318 95.125,312.172 97.600,312.288 97.600 C 312.403 97.600,312.325 97.375,312.114 97.100 C 311.903 96.825,309.712 93.765,307.244 90.300 C 304.775 86.835,302.655 84.000,302.531 84.000 C 302.407 84.000,302.744 84.585,303.280 85.300 M232.600 86.400 C 232.448 87.091,232.407 87.741,232.509 87.842 C 232.611 87.944,232.809 87.453,232.950 86.750 C 233.283 85.083,232.960 84.760,232.600 86.400 M239.200 89.400 C 239.881 90.390,240.528 91.200,240.638 91.200 C 240.748 91.200,240.281 90.390,239.600 89.400 C 238.919 88.410,238.272 87.600,238.162 87.600 C 238.052 87.600,238.519 88.410,239.200 89.400 M242.000 93.400 C 242.681 94.390,243.328 95.200,243.438 95.200 C 243.548 95.200,243.081 94.390,242.400 93.400 C 241.719 92.410,241.072 91.600,240.962 91.600 C 240.852 91.600,241.319 92.410,242.000 93.400 M295.665 94.217 C 294.995 95.688,295.123 96.002,295.847 94.665 C 296.186 94.040,296.388 93.454,296.296 93.363 C 296.205 93.271,295.921 93.656,295.665 94.217 M245.392 98.200 C 246.450 99.740,247.590 101.270,247.925 101.600 C 248.260 101.930,247.667 100.940,246.608 99.400 C 245.550 97.860,244.410 96.330,244.075 96.000 C 243.740 95.670,244.333 96.660,245.392 98.200 M229.429 97.829 C 229.281 98.415,229.238 98.972,229.332 99.066 C 229.427 99.160,229.624 98.758,229.771 98.171 C 229.919 97.585,229.962 97.028,229.868 96.934 C 229.773 96.840,229.576 97.242,229.429 97.829 M313.832 100.100 C 316.032 103.182,316.460 103.560,318.001 103.783 L 319.400 103.986 317.908 103.555 C 316.747 103.220,316.011 102.557,314.588 100.562 C 313.582 99.153,312.663 98.000,312.546 98.000 C 312.428 98.000,313.007 98.945,313.832 100.100 M293.067 100.467 C 292.705 101.388,292.474 102.207,292.554 102.288 C 292.634 102.368,293.000 101.683,293.367 100.767 C 293.733 99.850,293.964 99.031,293.879 98.946 C 293.794 98.861,293.429 99.545,293.067 100.467 M291.500 103.667 C 290.967 104.225,290.933 104.400,291.357 104.400 C 291.664 104.400,292.028 104.104,292.167 103.743 C 292.517 102.831,292.320 102.808,291.500 103.667 M250.400 105.400 C 251.081 106.390,251.728 107.200,251.838 107.200 C 251.948 107.200,251.481 106.390,250.800 105.400 C 250.119 104.410,249.472 103.600,249.362 103.600 C 249.252 103.600,249.719 104.410,250.400 105.400 M227.029 106.629 C 226.881 107.215,226.838 107.772,226.932 107.866 C 227.027 107.960,227.224 107.558,227.371 106.971 C 227.519 106.385,227.562 105.828,227.468 105.734 C 227.373 105.640,227.176 106.042,227.029 106.629 M252.800 108.800 C 253.270 109.460,253.744 110.000,253.854 110.000 C 253.964 110.000,253.670 109.460,253.200 108.800 C 252.730 108.140,252.256 107.600,252.146 107.600 C 252.036 107.600,252.330 108.140,252.800 108.800 M343.069 108.678 C 343.547 108.771,345.572 110.640,347.569 112.831 C 349.566 115.021,351.200 116.703,351.200 116.568 C 351.200 115.771,343.797 108.406,343.045 108.454 C 342.212 108.508,342.213 108.511,343.069 108.678 M225.829 111.029 C 225.681 111.615,225.638 112.172,225.732 112.266 C 225.827 112.360,226.024 111.958,226.171 111.371 C 226.319 110.785,226.362 110.228,226.268 110.134 C 226.173 110.040,225.976 110.442,225.829 111.029 M254.352 110.909 C 254.520 111.078,255.364 111.049,256.229 110.843 L 257.800 110.469 255.924 110.535 C 254.892 110.571,254.185 110.739,254.352 110.909 M349.500 116.676 C 349.115 116.776,348.800 117.009,348.800 117.192 C 348.800 117.375,349.160 117.431,349.600 117.316 C 350.040 117.201,350.400 116.948,350.400 116.753 C 350.400 116.559,350.355 116.421,350.300 116.446 C 350.245 116.472,349.885 116.575,349.500 116.676 M345.900 117.722 C 344.855 117.949,344.000 118.303,344.000 118.510 C 344.000 118.717,344.259 118.786,344.575 118.665 C 344.891 118.544,345.881 118.247,346.775 118.007 C 347.669 117.766,348.400 117.486,348.400 117.385 C 348.400 117.175,348.459 117.167,345.900 117.722 M336.600 119.200 C 336.459 119.428,336.804 119.600,337.400 119.600 C 337.996 119.600,338.341 119.428,338.200 119.200 C 338.064 118.980,337.704 118.800,337.400 118.800 C 337.096 118.800,336.736 118.980,336.600 119.200 M222.833 121.833 C 222.575 122.859,222.439 123.772,222.531 123.864 C 222.622 123.956,222.909 123.192,223.167 122.167 C 223.425 121.141,223.561 120.228,223.469 120.136 C 223.378 120.044,223.091 120.808,222.833 121.833 M321.200 120.800 C 320.732 121.102,320.843 121.189,321.700 121.194 C 322.305 121.197,322.800 121.020,322.800 120.800 C 322.800 120.294,321.983 120.294,321.200 120.800 M318.177 121.162 C 318.300 121.362,318.761 121.431,319.200 121.316 C 320.301 121.028,320.202 120.800,318.976 120.800 C 318.413 120.800,318.054 120.963,318.177 121.162 M312.200 121.600 C 311.496 121.902,311.535 121.947,312.524 121.972 C 313.176 121.988,313.544 121.832,313.400 121.600 C 313.264 121.380,313.118 121.213,313.076 121.228 C 313.034 121.244,312.640 121.411,312.200 121.600 M315.300 121.476 C 315.685 121.576,316.315 121.576,316.700 121.476 C 317.085 121.375,316.770 121.293,316.000 121.293 C 315.230 121.293,314.915 121.375,315.300 121.476 M309.000 122.000 C 308.859 122.228,309.204 122.400,309.800 122.400 C 310.396 122.400,310.741 122.228,310.600 122.000 C 310.464 121.780,310.104 121.600,309.800 121.600 C 309.496 121.600,309.136 121.780,309.000 122.000 M305.600 122.400 C 305.145 122.694,305.314 122.789,306.300 122.794 C 307.015 122.797,307.600 122.620,307.600 122.400 C 307.600 121.892,306.386 121.892,305.600 122.400 M302.800 122.800 C 302.800 123.301,303.224 123.301,304.000 122.800 C 304.485 122.486,304.428 122.411,303.700 122.406 C 303.205 122.403,302.800 122.580,302.800 122.800 M292.684 125.855 C 290.310 127.530,288.456 128.990,288.565 129.099 C 288.674 129.207,289.446 128.767,290.282 128.119 C 291.117 127.472,292.745 126.340,293.900 125.604 C 295.055 124.868,296.000 124.116,296.000 123.933 C 296.000 123.750,296.439 123.600,296.976 123.600 C 297.513 123.600,298.064 123.420,298.200 123.200 C 298.949 121.989,296.474 123.180,292.684 125.855 M285.000 131.002 C 281.533 133.529,280.712 134.228,282.263 133.331 C 284.000 132.326,288.000 129.558,288.000 129.361 C 288.000 128.957,287.225 129.381,285.000 131.002 M278.202 135.653 C 273.671 138.660,273.987 137.805,274.091 146.770 L 274.182 154.600 274.299 146.706 L 274.417 138.813 277.381 136.813 C 279.011 135.713,280.458 134.630,280.596 134.406 C 280.946 133.840,280.892 133.869,278.202 135.653 M218.433 137.833 C 218.175 138.859,218.039 139.772,218.131 139.864 C 218.222 139.956,218.509 139.192,218.767 138.167 C 219.025 137.141,219.161 136.228,219.069 136.136 C 218.978 136.044,218.691 136.808,218.433 137.833 M215.429 148.629 C 215.281 149.215,215.238 149.772,215.332 149.866 C 215.427 149.960,215.624 149.558,215.771 148.971 C 215.919 148.385,215.962 147.828,215.868 147.734 C 215.773 147.640,215.576 148.042,215.429 148.629 M92.800 154.961 C 92.800 155.071,94.600 156.618,96.800 158.400 C 99.000 160.182,100.800 161.549,100.800 161.439 C 100.800 161.329,99.000 159.782,96.800 158.000 C 94.600 156.218,92.800 154.851,92.800 154.961 M89.675 159.019 C 88.470 161.500,88.605 161.847,89.846 159.461 C 90.401 158.394,90.787 157.453,90.703 157.370 C 90.619 157.286,90.157 158.028,89.675 159.019 M212.229 160.229 C 212.081 160.815,212.038 161.372,212.132 161.466 C 212.227 161.560,212.424 161.158,212.571 160.571 C 212.719 159.985,212.762 159.428,212.668 159.334 C 212.573 159.240,212.376 159.642,212.229 160.229 M101.200 161.730 C 101.200 161.830,102.955 163.294,105.100 164.982 C 107.245 166.670,108.333 167.443,107.518 166.699 C 105.620 164.966,101.200 161.490,101.200 161.730 M192.000 162.800 C 193.210 163.439,194.380 163.962,194.600 163.962 C 194.820 163.962,194.010 163.439,192.800 162.800 C 191.590 162.161,190.420 161.638,190.200 161.638 C 189.980 161.638,190.790 162.161,192.000 162.800 M186.650 164.850 C 186.317 166.517,186.640 166.840,187.000 165.200 C 187.152 164.509,187.193 163.859,187.091 163.758 C 186.989 163.656,186.791 164.147,186.650 164.850 M86.278 166.220 C 84.809 169.214,84.945 169.569,86.446 166.660 C 87.110 165.373,87.586 164.253,87.504 164.171 C 87.423 164.089,86.871 165.011,86.278 166.220 M200.000 166.600 C 200.990 167.130,201.980 167.564,202.200 167.564 C 202.420 167.564,201.790 167.130,200.800 166.600 C 199.810 166.070,198.820 165.636,198.600 165.636 C 198.380 165.636,199.010 166.070,200.000 166.600 M273.762 172.200 C 273.762 175.720,273.824 177.106,273.898 175.281 C 273.972 173.456,273.972 170.576,273.897 168.881 C 273.822 167.186,273.761 168.680,273.762 172.200 M209.632 169.747 C 209.600 170.493,209.457 170.499,207.400 169.831 C 206.960 169.688,207.187 169.881,207.905 170.261 C 209.284 170.989,210.306 170.613,209.877 169.535 C 209.739 169.191,209.652 169.267,209.632 169.747 M156.681 170.287 C 155.406 170.622,154.441 170.974,154.537 171.070 C 154.716 171.250,159.668 170.059,159.967 169.764 C 160.262 169.473,159.056 169.665,156.681 170.287 M83.072 173.019 C 82.132 174.989,82.264 175.324,83.247 173.462 C 83.693 172.616,83.987 171.854,83.901 171.767 C 83.814 171.681,83.441 172.244,83.072 173.019 M115.324 173.077 C 115.660 173.621,118.800 176.155,118.800 175.882 C 118.800 175.780,117.953 175.003,116.919 174.155 C 115.884 173.307,115.166 172.822,115.324 173.077 M143.800 173.815 C 142.223 174.361,142.220 174.365,143.600 174.132 C 145.232 173.857,146.900 173.248,146.000 173.256 C 145.670 173.259,144.680 173.511,143.800 173.815 M167.018 177.418 C 166.865 178.439,166.822 179.355,166.922 179.455 C 167.022 179.555,167.229 178.802,167.382 177.782 C 167.535 176.761,167.578 175.845,167.478 175.745 C 167.378 175.645,167.171 176.398,167.018 177.418 M119.324 176.277 C 119.660 176.821,122.800 179.355,122.800 179.082 C 122.800 178.980,121.953 178.203,120.919 177.355 C 119.884 176.507,119.166 176.022,119.324 176.277 M60.591 178.100 C 60.059 179.198,60.055 179.282,60.566 178.643 C 60.899 178.227,61.231 177.706,61.305 177.484 C 61.379 177.263,64.671 179.235,68.620 181.867 C 72.569 184.499,76.019 186.783,76.287 186.942 C 76.726 187.203,79.237 183.013,79.181 182.111 C 79.170 181.940,78.583 182.924,77.876 184.298 L 76.591 186.796 69.100 181.798 C 60.482 176.048,61.393 176.444,60.591 178.100 M80.865 177.817 C 80.195 179.288,80.323 179.602,81.047 178.265 C 81.386 177.640,81.588 177.054,81.496 176.963 C 81.405 176.871,81.121 177.256,80.865 177.817 M57.000 184.800 C 56.443 185.900,56.077 186.800,56.187 186.800 C 56.297 186.800,56.843 185.900,57.400 184.800 C 57.957 183.700,58.323 182.800,58.213 182.800 C 58.103 182.800,57.557 183.700,57.000 184.800 M165.076 187.100 C 164.919 187.871,163.940 188.900,161.801 190.541 C 160.123 191.829,158.850 192.983,158.972 193.106 C 159.095 193.228,159.511 193.055,159.898 192.720 C 160.284 192.385,161.044 191.771,161.586 191.356 C 163.818 189.644,165.600 187.642,165.600 186.847 C 165.600 185.666,165.343 185.790,165.076 187.100 M180.622 189.422 C 180.472 190.225,180.428 190.962,180.526 191.060 C 180.624 191.157,180.827 190.581,180.978 189.778 C 181.128 188.975,181.172 188.238,181.074 188.140 C 180.976 188.043,180.773 188.619,180.622 189.422 M273.467 189.867 C 273.034 190.299,273.158 199.127,273.600 199.400 C 273.859 199.560,274.000 197.871,274.000 194.624 C 274.000 191.861,273.940 189.600,273.867 189.600 C 273.793 189.600,273.613 189.720,273.467 189.867 M52.800 192.800 C 52.134 194.120,51.678 195.200,51.788 195.200 C 51.898 195.200,52.534 194.120,53.200 192.800 C 53.866 191.480,54.322 190.400,54.212 190.400 C 54.102 190.400,53.466 191.480,52.800 192.800 M153.800 196.643 C 151.380 198.516,149.130 200.317,148.800 200.646 C 147.557 201.883,149.543 200.760,151.068 199.363 C 151.883 198.617,152.876 197.903,153.275 197.776 C 153.674 197.650,154.000 197.378,154.000 197.173 C 154.000 196.968,154.226 196.800,154.501 196.800 C 154.777 196.800,155.512 196.260,156.135 195.600 C 156.758 194.940,157.413 194.400,157.591 194.400 C 157.769 194.400,158.018 194.130,158.145 193.800 C 158.449 193.006,158.779 192.790,153.800 196.643 M48.200 201.600 C 47.424 203.140,46.880 204.400,46.990 204.400 C 47.100 204.400,47.824 203.140,48.600 201.600 C 49.376 200.060,49.920 198.800,49.810 198.800 C 49.700 198.800,48.976 200.060,48.200 201.600 M144.930 203.521 C 141.797 206.009,141.356 206.400,141.685 206.400 C 141.805 206.400,142.947 205.590,144.222 204.600 C 145.497 203.610,146.645 202.800,146.774 202.800 C 146.902 202.800,147.232 202.440,147.507 202.000 C 148.171 200.937,148.219 200.909,144.930 203.521 M272.682 202.300 C 272.485 203.326,272.614 203.950,272.944 203.567 C 273.319 203.131,273.573 201.200,273.254 201.200 C 273.056 201.200,272.798 201.695,272.682 202.300 M79.938 202.865 C 79.642 203.393,77.420 206.584,75.000 209.955 C 67.325 220.647,66.833 221.366,67.049 221.582 C 67.165 221.698,67.418 221.525,67.612 221.197 C 67.805 220.869,68.684 219.610,69.564 218.400 C 70.444 217.190,71.980 215.009,72.978 213.552 C 73.976 212.096,75.064 210.679,75.396 210.403 C 75.728 210.128,76.000 209.654,76.000 209.351 C 76.000 209.048,76.180 208.800,76.400 208.800 C 76.620 208.800,76.800 208.601,76.800 208.358 C 76.800 208.115,77.205 207.416,77.700 206.805 C 78.195 206.194,79.039 205.144,79.576 204.471 C 80.736 203.016,81.028 203.133,82.019 205.444 C 83.078 207.915,83.359 207.638,82.368 205.100 C 81.224 202.173,80.631 201.628,79.938 202.865 M176.622 205.822 C 176.472 206.625,176.428 207.362,176.526 207.460 C 176.624 207.557,176.827 206.981,176.978 206.178 C 177.128 205.375,177.172 204.638,177.074 204.540 C 176.976 204.443,176.773 205.019,176.622 205.822 M217.593 207.700 C 215.983 208.855,214.580 210.057,214.476 210.372 C 214.371 210.687,215.166 210.224,216.243 209.343 C 219.171 206.947,220.214 206.374,220.724 206.884 C 221.032 207.192,221.091 207.071,220.931 206.458 C 220.650 205.384,221.007 205.251,217.593 207.700 M44.000 209.600 C 43.334 210.920,42.878 212.000,42.988 212.000 C 43.098 212.000,43.734 210.920,44.400 209.600 C 45.066 208.280,45.522 207.200,45.412 207.200 C 45.302 207.200,44.666 208.280,44.000 209.600 M83.200 207.805 C 83.200 207.918,83.366 208.323,83.568 208.705 C 83.771 209.087,84.504 210.632,85.198 212.137 C 85.892 213.642,86.538 214.795,86.633 214.700 C 86.838 214.495,83.701 207.600,83.403 207.600 C 83.292 207.600,83.200 207.692,83.200 207.805 M135.400 210.844 C 132.355 213.303,131.866 213.986,134.725 211.786 C 136.934 210.086,137.934 209.167,137.524 209.214 C 137.456 209.222,136.500 209.955,135.400 210.844 M211.800 211.852 C 208.017 214.507,206.269 216.400,207.600 216.400 C 207.820 216.400,208.000 216.139,208.000 215.820 C 208.000 215.501,209.148 214.421,210.551 213.420 C 212.729 211.866,214.459 210.341,213.949 210.424 C 213.867 210.438,212.900 211.081,211.800 211.852 M220.806 211.700 C 220.820 212.842,221.588 213.426,221.594 212.300 C 221.597 211.695,221.420 211.200,221.200 211.200 C 220.980 211.200,220.803 211.425,220.806 211.700 M131.693 214.800 C 131.693 215.570,131.775 215.885,131.876 215.500 C 131.976 215.115,131.976 214.485,131.876 214.100 C 131.775 213.715,131.693 214.030,131.693 214.800 M269.862 214.547 C 269.697 215.178,269.656 215.789,269.771 215.904 C 270.093 216.227,270.487 214.938,270.315 214.123 C 270.203 213.590,270.084 213.701,269.862 214.547 M40.200 216.800 C 39.424 218.340,38.880 219.600,38.990 219.600 C 39.100 219.600,39.824 218.340,40.600 216.800 C 41.376 215.260,41.920 214.000,41.810 214.000 C 41.700 214.000,40.976 215.260,40.200 216.800 M221.300 214.993 C 221.300 215.539,221.457 215.888,221.650 215.769 C 221.843 215.650,222.000 215.203,222.000 214.776 C 222.000 214.349,221.843 214.000,221.650 214.000 C 221.457 214.000,221.300 214.447,221.300 214.993 M87.416 216.600 C 87.778 217.480,88.254 218.380,88.474 218.600 C 88.694 218.820,88.578 218.280,88.216 217.400 C 87.854 216.520,87.378 215.620,87.158 215.400 C 86.938 215.180,87.054 215.720,87.416 216.600 M269.300 217.393 C 269.300 217.939,269.457 218.288,269.650 218.169 C 269.843 218.050,270.000 217.603,270.000 217.176 C 270.000 216.749,269.843 216.400,269.650 216.400 C 269.457 216.400,269.300 216.847,269.300 217.393 M221.600 217.353 C 221.600 217.683,221.780 218.064,222.000 218.200 C 222.220 218.336,222.400 218.177,222.400 217.847 C 222.400 217.517,222.220 217.136,222.000 217.000 C 221.780 216.864,221.600 217.023,221.600 217.353 M88.413 219.500 C 88.430 219.913,89.432 221.200,89.736 221.200 C 89.872 221.200,89.778 220.750,89.527 220.200 C 89.104 219.270,88.384 218.818,88.413 219.500 M172.622 222.222 C 172.472 223.025,172.428 223.762,172.526 223.860 C 172.624 223.957,172.827 223.381,172.978 222.578 C 173.128 221.775,173.172 221.038,173.074 220.940 C 172.976 220.843,172.773 221.419,172.622 222.222 M206.406 222.100 C 206.411 222.828,206.486 222.885,206.800 222.400 C 207.301 221.624,207.301 221.200,206.800 221.200 C 206.580 221.200,206.403 221.605,206.406 222.100 M36.000 224.800 C 35.115 226.560,34.481 228.000,34.591 228.000 C 34.701 228.000,35.515 226.560,36.400 224.800 C 37.285 223.040,37.919 221.600,37.809 221.600 C 37.699 221.600,36.885 223.040,36.000 224.800 M64.528 224.700 C 62.236 227.823,57.985 233.792,57.400 234.709 C 57.180 235.054,56.783 235.621,56.517 235.968 C 53.533 239.868,44.541 252.800,44.814 252.800 C 45.011 252.800,45.385 252.395,45.646 251.900 C 45.906 251.405,46.228 250.910,46.360 250.800 C 46.949 250.310,49.136 247.284,49.723 246.148 C 50.079 245.460,50.647 244.791,50.985 244.661 C 51.323 244.531,51.600 244.177,51.600 243.874 C 51.600 243.571,51.957 242.890,52.393 242.361 C 53.297 241.264,53.636 240.810,54.200 239.938 C 54.779 239.043,56.495 236.632,58.996 233.200 C 60.199 231.550,61.844 229.210,62.652 228.000 C 63.459 226.790,64.430 225.440,64.807 225.000 C 65.717 223.940,66.942 222.000,66.701 222.000 C 66.596 222.000,65.618 223.215,64.528 224.700 M222.006 222.476 C 222.018 223.481,222.787 224.308,222.794 223.324 C 222.797 222.842,222.620 222.336,222.400 222.200 C 222.180 222.064,222.003 222.188,222.006 222.476 M206.000 223.800 C 206.000 224.130,206.180 224.400,206.400 224.400 C 206.620 224.400,206.800 224.130,206.800 223.800 C 206.800 223.470,206.620 223.200,206.400 223.200 C 206.180 223.200,206.000 223.470,206.000 223.800 M267.824 224.300 C 267.680 224.905,267.460 225.760,267.336 226.200 C 267.186 226.730,267.244 226.865,267.507 226.600 C 267.913 226.190,268.577 223.200,268.261 223.200 C 268.165 223.200,267.969 223.695,267.824 224.300 M90.800 223.798 C 90.800 223.990,92.501 227.626,96.449 235.875 C 97.522 238.117,98.400 240.142,98.400 240.375 C 98.400 240.609,98.576 240.800,98.790 240.800 C 99.296 240.800,99.054 240.202,95.796 233.400 C 94.321 230.320,92.693 226.855,92.179 225.700 C 91.375 223.893,90.800 223.100,90.800 223.798 M222.406 225.700 C 222.403 226.305,222.580 226.800,222.800 226.800 C 223.306 226.800,223.306 225.983,222.800 225.200 C 222.498 224.732,222.411 224.843,222.406 225.700 M205.659 227.800 C 205.620 228.240,205.477 229.050,205.340 229.600 C 205.148 230.370,205.202 230.497,205.575 230.151 C 205.844 229.901,205.985 229.103,205.893 228.351 C 205.802 227.608,205.697 227.360,205.659 227.800 M171.000 228.800 C 170.848 229.491,170.807 230.141,170.909 230.242 C 171.011 230.344,171.209 229.853,171.350 229.150 C 171.683 227.483,171.360 227.160,171.000 228.800 M32.600 231.200 C 32.043 232.300,31.677 233.200,31.787 233.200 C 31.897 233.200,32.443 232.300,33.000 231.200 C 33.557 230.100,33.923 229.200,33.813 229.200 C 33.703 229.200,33.157 230.100,32.600 231.200 M266.229 231.081 C 266.082 231.697,265.868 232.515,265.754 232.900 C 265.640 233.285,265.722 233.600,265.938 233.600 C 266.153 233.600,266.453 232.868,266.605 231.973 C 266.921 230.102,266.628 229.408,266.229 231.081 M170.448 232.800 C 170.442 233.130,170.683 233.940,170.986 234.600 C 171.693 236.145,171.703 235.426,171.000 233.600 C 170.703 232.830,170.455 232.470,170.448 232.800 M30.678 235.005 C 30.312 235.772,30.095 236.400,30.196 236.400 C 30.470 236.400,31.684 233.951,31.501 233.768 C 31.414 233.681,31.044 234.238,30.678 235.005 M265.529 235.000 C 265.271 236.199,265.396 236.738,265.830 236.303 C 265.957 236.177,265.999 235.562,265.924 234.937 L 265.787 233.800 265.529 235.000 M28.981 238.037 C 28.629 238.718,28.412 239.345,28.499 239.432 C 28.586 239.519,28.956 238.962,29.322 238.195 C 30.144 236.470,29.859 236.338,28.981 238.037 M172.629 238.800 C 172.776 239.350,173.064 240.070,173.267 240.400 C 173.525 240.817,173.557 240.695,173.371 240.000 C 173.224 239.450,172.936 238.730,172.733 238.400 C 172.475 237.983,172.443 238.105,172.629 238.800 M224.000 240.000 C 224.000 240.440,224.180 240.800,224.400 240.800 C 224.620 240.800,224.800 240.440,224.800 240.000 C 224.800 239.560,224.620 239.200,224.400 239.200 C 224.180 239.200,224.000 239.560,224.000 240.000 M264.446 239.667 C 264.421 240.034,264.296 240.664,264.170 241.067 C 263.952 241.762,263.963 241.763,264.397 241.087 C 264.648 240.696,264.773 240.066,264.673 239.687 C 264.511 239.068,264.488 239.066,264.446 239.667 M27.000 242.000 C 26.443 243.100,26.077 244.000,26.187 244.000 C 26.297 244.000,26.843 243.100,27.400 242.000 C 27.957 240.900,28.323 240.000,28.213 240.000 C 28.103 240.000,27.557 240.900,27.000 242.000 M224.400 245.400 C 224.400 245.950,224.580 246.400,224.800 246.400 C 225.020 246.400,225.200 245.950,225.200 245.400 C 225.200 244.850,225.020 244.400,224.800 244.400 C 224.580 244.400,224.400 244.850,224.400 245.400 M202.806 245.700 C 202.811 246.428,202.886 246.485,203.200 246.000 C 203.701 245.224,203.701 244.800,203.200 244.800 C 202.980 244.800,202.803 245.205,202.806 245.700 M100.000 247.733 C 100.000 248.540,100.175 249.200,100.390 249.200 C 100.614 249.200,100.675 248.647,100.533 247.900 C 100.186 246.077,100.000 246.019,100.000 247.733 M224.800 248.176 C 224.800 248.739,224.980 249.200,225.200 249.200 C 225.420 249.200,225.600 248.851,225.600 248.424 C 225.600 247.997,225.420 247.536,225.200 247.400 C 224.973 247.260,224.800 247.596,224.800 248.176 M23.000 249.600 C 22.443 250.700,22.077 251.600,22.187 251.600 C 22.297 251.600,22.843 250.700,23.400 249.600 C 23.957 248.500,24.323 247.600,24.213 247.600 C 24.103 247.600,23.557 248.500,23.000 249.600 M262.282 248.700 C 262.085 249.726,262.214 250.350,262.544 249.967 C 262.919 249.531,263.173 247.600,262.854 247.600 C 262.656 247.600,262.398 248.095,262.282 248.700 M177.029 250.400 C 177.176 250.950,177.464 251.670,177.667 252.000 C 177.925 252.417,177.957 252.295,177.771 251.600 C 177.624 251.050,177.336 250.330,177.133 250.000 C 176.875 249.583,176.843 249.705,177.029 250.400 M225.200 250.776 C 225.200 251.229,225.380 251.600,225.600 251.600 C 225.820 251.600,226.000 251.341,226.000 251.024 C 226.000 250.707,225.820 250.336,225.600 250.200 C 225.380 250.064,225.200 250.323,225.200 250.776 M45.128 255.079 C 45.469 256.113,45.818 256.745,45.906 256.483 C 46.112 255.865,45.233 253.200,44.824 253.200 C 44.651 253.200,44.788 254.046,45.128 255.079 M201.200 255.400 C 201.200 255.730,201.380 256.000,201.600 256.000 C 201.820 256.000,202.000 255.730,202.000 255.400 C 202.000 255.070,201.820 254.800,201.600 254.800 C 201.380 254.800,201.200 255.070,201.200 255.400 M19.344 256.548 C 18.837 257.611,18.800 258.054,19.170 258.648 C 19.602 259.342,19.620 259.333,19.398 258.520 C 19.267 258.036,19.443 257.091,19.790 256.420 C 20.137 255.749,20.323 255.200,20.204 255.200 C 20.085 255.200,19.698 255.806,19.344 256.548 M47.407 261.000 C 48.202 263.200,49.067 265.630,49.328 266.400 C 49.849 267.936,50.779 268.643,59.099 273.822 C 61.793 275.499,64.080 277.006,64.182 277.171 C 64.284 277.336,63.115 279.120,61.585 281.135 C 60.055 283.151,58.976 284.800,59.187 284.800 C 59.399 284.800,59.788 284.395,60.051 283.900 C 60.315 283.405,60.747 282.820,61.012 282.600 C 64.663 279.564,65.118 276.765,62.223 275.162 C 61.330 274.668,59.610 273.602,58.400 272.794 C 57.190 271.986,55.725 271.071,55.145 270.762 C 53.112 269.678,50.000 267.409,49.996 267.006 C 49.988 266.309,46.772 257.821,46.356 257.400 C 46.139 257.181,46.612 258.801,47.407 261.000 M180.229 258.800 C 180.376 259.350,180.664 260.070,180.867 260.400 C 181.125 260.817,181.157 260.695,180.971 260.000 C 180.824 259.450,180.536 258.730,180.333 258.400 C 180.075 257.983,180.043 258.105,180.229 258.800 M102.006 259.233 C 102.009 259.765,102.189 260.470,102.404 260.800 C 102.694 261.243,102.762 261.059,102.663 260.098 C 102.503 258.534,101.997 257.868,102.006 259.233 M226.000 258.953 C 226.000 259.283,226.180 259.664,226.400 259.800 C 226.620 259.936,226.800 259.777,226.800 259.447 C 226.800 259.117,226.620 258.736,226.400 258.600 C 226.180 258.464,226.000 258.623,226.000 258.953 M260.400 261.115 C 260.400 261.331,260.715 261.614,261.100 261.746 C 261.485 261.878,262.700 262.520,263.800 263.173 C 264.900 263.827,266.250 264.604,266.800 264.902 C 267.822 265.455,276.839 270.526,280.800 272.777 C 282.010 273.464,283.945 274.508,285.100 275.097 C 287.743 276.444,287.688 276.867,283.909 284.148 C 283.695 284.560,283.684 284.796,283.883 284.672 C 284.083 284.549,285.121 282.698,286.189 280.559 L 288.132 276.670 286.966 275.737 C 286.325 275.224,285.682 274.803,285.538 274.802 C 285.302 274.800,283.095 273.572,278.600 270.942 C 277.720 270.427,276.280 269.633,275.400 269.178 C 274.520 268.723,272.962 267.867,271.939 267.276 C 270.130 266.230,267.420 264.690,262.700 262.023 C 261.435 261.308,260.400 260.900,260.400 261.115 M226.406 261.900 C 226.403 262.395,226.580 262.800,226.800 262.800 C 227.301 262.800,227.301 262.376,226.800 261.600 C 226.486 261.115,226.411 261.172,226.406 261.900 M200.060 263.181 C 200.220 263.660,203.600 265.882,203.600 265.508 C 203.600 265.413,202.765 264.736,201.745 264.004 C 200.725 263.271,199.967 262.901,200.060 263.181 M102.840 263.876 C 102.935 265.595,103.512 266.667,103.490 265.083 C 103.479 264.249,103.319 263.473,103.135 263.360 C 102.951 263.246,102.818 263.478,102.840 263.876 M226.841 264.824 C 226.818 265.386,227.083 266.196,227.430 266.624 C 227.776 267.051,227.927 267.146,227.766 266.835 C 227.604 266.524,227.339 265.714,227.177 265.035 C 226.906 263.900,226.879 263.882,226.841 264.824 M205.466 267.108 C 206.382 267.708,208.812 269.365,210.866 270.788 C 212.920 272.212,215.633 274.070,216.895 274.918 C 219.861 276.910,219.877 276.948,218.544 278.923 C 217.212 280.897,216.606 281.873,215.952 283.100 C 215.489 283.968,215.265 284.001,209.636 284.028 C 206.426 284.044,203.440 284.211,203.000 284.400 C 202.507 284.612,204.658 284.752,208.600 284.766 C 212.120 284.778,215.182 284.656,215.404 284.494 C 215.889 284.141,218.000 280.931,218.000 280.546 C 218.000 280.397,218.450 279.686,219.000 278.964 C 220.646 276.806,220.661 276.823,211.628 270.800 C 210.803 270.250,208.853 268.945,207.294 267.900 C 205.735 266.855,204.311 266.003,204.130 266.008 C 203.948 266.012,204.550 266.507,205.466 267.108 M22.629 267.600 C 22.776 268.150,23.064 268.870,23.267 269.200 C 23.525 269.617,23.557 269.495,23.371 268.800 C 23.224 268.250,22.936 267.530,22.733 267.200 C 22.475 266.783,22.443 266.905,22.629 267.600 M144.400 267.898 C 144.400 268.086,145.165 268.632,146.100 269.111 C 147.035 269.590,149.285 270.787,151.100 271.772 C 152.915 272.756,154.400 273.420,154.400 273.246 C 154.400 273.073,152.915 272.187,151.100 271.277 C 149.285 270.367,147.035 269.158,146.100 268.589 C 145.165 268.020,144.400 267.709,144.400 267.898 M104.000 269.510 C 104.000 270.193,104.177 270.862,104.394 270.996 C 104.640 271.148,104.694 270.745,104.537 269.920 C 104.200 268.151,104.000 267.999,104.000 269.510 M228.400 269.156 C 228.400 269.351,228.769 269.936,229.220 270.456 L 230.040 271.400 229.410 270.100 C 228.790 268.821,228.400 268.456,228.400 269.156 M184.629 270.400 C 184.776 270.950,185.064 271.670,185.267 272.000 C 185.525 272.417,185.557 272.295,185.371 271.600 C 185.224 271.050,184.936 270.330,184.733 270.000 C 184.475 269.583,184.443 269.705,184.629 270.400 M230.002 272.033 C 230.003 272.345,230.468 273.140,231.036 273.800 L 232.068 275.000 231.164 273.400 C 230.023 271.379,230.000 271.351,230.002 272.033 M154.986 273.577 C 155.321 274.119,159.213 276.121,159.457 275.876 C 159.555 275.779,158.527 275.123,157.175 274.419 C 155.822 273.715,154.837 273.336,154.986 273.577 M186.629 275.600 C 186.776 276.150,187.064 276.870,187.267 277.200 C 187.525 277.617,187.557 277.495,187.371 276.800 C 187.224 276.250,186.936 275.530,186.733 275.200 C 186.475 274.783,186.443 274.905,186.629 275.600 M105.312 276.500 C 105.340 277.325,105.507 278.000,105.682 278.000 C 106.065 278.000,106.035 277.347,105.590 276.000 C 105.305 275.135,105.267 275.202,105.312 276.500 M232.386 276.773 C 232.827 277.638,233.381 278.465,233.616 278.610 C 233.851 278.755,233.628 278.052,233.121 277.048 C 232.615 276.044,232.061 275.217,231.892 275.211 C 231.722 275.205,231.945 275.908,232.386 276.773 M159.495 276.673 C 159.394 276.853,159.203 277.540,159.072 278.200 C 158.834 279.394,158.836 279.393,159.437 278.053 C 159.960 276.886,160.008 275.768,159.495 276.673 M26.629 278.000 C 26.776 278.550,27.064 279.270,27.267 279.600 C 27.525 280.017,27.557 279.895,27.371 279.200 C 27.224 278.650,26.936 277.930,26.733 277.600 C 26.475 277.183,26.443 277.305,26.629 278.000 M105.603 278.676 C 105.616 280.036,106.532 284.278,106.882 284.600 C 107.186 284.879,107.249 284.804,107.091 284.351 C 106.761 283.406,106.228 279.879,106.332 279.330 C 106.381 279.072,106.236 278.746,106.011 278.607 C 105.785 278.467,105.601 278.498,105.603 278.676 M233.994 279.433 C 233.985 280.024,236.563 284.800,236.890 284.800 C 237.055 284.800,236.538 283.585,235.743 282.100 C 234.147 279.119,234.003 278.900,233.994 279.433 M157.600 282.133 C 157.600 283.138,157.554 283.339,157.146 284.100 C 156.907 284.548,156.915 284.800,157.168 284.800 C 157.623 284.800,158.221 282.088,157.848 281.715 C 157.712 281.578,157.600 281.767,157.600 282.133 M28.618 283.300 C 28.768 283.795,29.055 284.376,29.256 284.591 C 29.457 284.806,29.419 284.401,29.172 283.691 C 28.665 282.238,28.197 281.908,28.618 283.300 " stroke="none" fill="#e4a841" fill-rule="evenodd"></path><path id="path2" d="M325.180 23.283 L 325.160 27.400 318.280 33.698 L 311.400 39.997 306.300 39.998 C 301.286 40.000,301.200 39.985,301.172 39.100 C 301.151 38.419,301.078 38.354,300.872 38.833 C 300.567 39.542,302.640 39.970,276.289 33.750 C 268.418 31.892,261.578 30.220,261.089 30.035 C 260.600 29.850,258.220 29.482,255.800 29.219 C 253.380 28.955,250.956 28.668,250.414 28.580 C 249.871 28.493,246.901 28.313,243.814 28.181 C 240.726 28.049,236.670 27.772,234.800 27.566 C 232.930 27.360,229.600 27.012,227.400 26.792 C 225.200 26.572,223.022 26.307,222.561 26.204 C 221.945 26.065,221.595 26.293,221.247 27.057 C 217.674 34.898,199.121 63.969,188.661 78.114 L 177.327 93.442 176.884 96.821 C 176.640 98.679,175.071 110.370,173.398 122.800 C 171.725 135.230,170.064 147.605,169.707 150.300 C 169.349 152.995,168.933 155.200,168.781 155.200 C 168.629 155.200,164.568 151.105,159.757 146.100 C 144.654 130.387,143.853 129.586,143.563 129.897 C 143.295 130.182,141.508 134.516,134.202 152.600 C 132.514 156.780,130.994 160.345,130.824 160.522 C 130.655 160.698,126.023 155.118,120.531 148.122 C 115.039 141.125,101.677 124.104,90.837 110.298 L 71.129 85.196 67.865 87.713 C 66.069 89.097,58.444 94.961,50.921 100.746 C 39.861 109.248,37.165 111.505,36.841 112.531 C 36.408 113.899,6.494 209.805,2.396 222.961 C -0.117 231.029,-0.507 234.208,0.503 238.400 C 0.666 239.076,1.755 245.271,2.612 250.400 C 2.925 252.270,3.281 254.700,3.405 255.800 C 3.528 256.900,3.704 258.160,3.794 258.600 C 3.885 259.040,4.074 260.478,4.214 261.795 C 4.355 263.112,4.529 264.285,4.600 264.401 C 4.742 264.630,5.797 271.025,6.205 274.134 C 6.389 275.532,6.756 276.327,7.530 277.003 C 11.130 280.149,11.924 280.800,12.159 280.800 C 12.396 280.800,14.348 282.458,15.926 284.000 C 16.408 284.470,17.912 284.628,22.874 284.728 L 29.207 284.855 28.262 282.328 C 26.219 276.866,23.660 270.150,23.260 269.200 C 23.028 268.650,21.918 265.821,20.793 262.914 L 18.748 257.628 20.318 254.714 C 21.836 251.895,24.078 247.631,29.102 238.000 C 30.422 235.470,35.905 225.030,41.287 214.800 C 46.668 204.570,53.365 191.835,56.167 186.500 C 58.970 181.165,61.341 176.800,61.436 176.800 C 61.531 176.800,64.982 179.053,69.105 181.807 L 76.600 186.813 78.476 182.907 C 79.508 180.758,82.886 173.606,85.982 167.014 C 89.079 160.421,91.761 154.879,91.943 154.697 C 92.125 154.515,99.245 159.970,107.766 166.819 L 123.259 179.273 137.130 175.603 C 144.758 173.585,152.170 171.601,153.600 171.195 C 160.375 169.270,168.903 167.169,169.108 167.374 C 169.489 167.755,165.533 187.326,164.858 188.400 C 164.512 188.950,164.171 189.850,164.100 190.400 C 164.029 190.950,163.624 192.480,163.200 193.800 C 162.776 195.120,162.064 197.910,161.618 200.000 C 161.171 202.090,160.607 204.610,160.363 205.600 C 159.519 209.025,159.105 210.603,158.892 211.200 C 158.596 212.033,158.509 212.397,158.225 214.000 C 158.088 214.770,157.501 217.318,156.919 219.661 L 155.862 223.923 156.906 227.061 C 157.480 228.788,158.029 230.830,158.127 231.600 C 158.286 232.857,158.641 234.128,160.582 240.400 C 160.889 241.390,161.353 243.190,161.615 244.400 C 161.876 245.610,162.376 247.410,162.726 248.400 C 163.077 249.390,163.404 250.380,163.454 250.600 C 163.504 250.820,163.821 252.019,164.158 253.265 C 164.496 254.511,164.863 255.951,164.975 256.465 C 165.088 256.979,165.625 258.930,166.170 260.800 C 166.715 262.670,167.377 265.010,167.640 266.000 C 169.339 272.398,170.892 277.943,171.224 278.800 C 171.666 279.944,171.950 281.158,172.277 283.300 L 172.505 284.800 181.502 284.800 C 188.644 284.800,190.416 284.697,190.100 284.300 C 189.882 284.025,188.784 281.370,187.662 278.400 C 186.539 275.430,183.801 268.230,181.578 262.400 C 179.354 256.570,177.206 250.900,176.805 249.800 C 176.404 248.700,174.958 244.920,173.592 241.400 C 169.914 231.920,170.058 232.965,171.573 226.758 C 172.292 223.811,174.213 215.955,175.840 209.300 C 177.468 202.645,180.153 191.665,181.806 184.900 C 183.460 178.135,185.464 169.945,186.260 166.700 C 187.056 163.455,187.889 160.800,188.111 160.800 C 188.333 160.800,193.053 162.960,198.600 165.600 C 208.054 170.100,209.600 170.742,209.600 170.172 C 209.600 170.046,210.757 165.771,212.170 160.672 C 213.584 155.572,216.474 145.100,218.594 137.400 C 220.713 129.700,222.874 121.870,223.396 120.000 C 224.629 115.585,227.774 104.189,230.406 94.600 C 233.694 82.622,233.780 82.343,234.201 82.318 C 234.420 82.305,239.046 88.639,244.480 96.394 C 249.914 104.149,254.425 110.558,254.504 110.637 C 254.697 110.830,269.585 108.188,289.399 104.444 C 291.840 103.983,291.202 105.063,296.382 92.616 C 298.758 86.905,300.860 82.186,301.051 82.130 C 301.243 82.073,304.730 86.715,308.800 92.444 C 312.870 98.174,316.329 102.945,316.486 103.046 C 316.821 103.261,327.252 105.389,337.121 107.254 L 344.043 108.563 345.895 110.581 C 346.913 111.692,348.615 113.536,349.677 114.680 L 351.607 116.760 354.387 116.030 C 355.916 115.629,357.249 115.382,357.349 115.482 C 357.449 115.583,357.898 115.468,358.347 115.228 C 359.055 114.849,369.603 112.095,373.000 111.403 C 374.443 111.108,374.436 111.110,377.200 110.298 C 378.410 109.943,380.120 109.458,381.000 109.220 C 382.558 108.800,388.000 103.198,388.000 102.015 C 388.000 101.568,384.032 99.601,383.126 99.599 C 382.837 99.598,382.036 99.253,381.346 98.832 C 380.656 98.412,379.666 97.994,379.146 97.904 C 378.486 97.790,378.382 97.674,378.800 97.521 C 380.115 97.041,386.655 95.592,387.494 95.596 C 387.986 95.598,389.156 95.423,390.094 95.206 C 391.032 94.990,392.281 94.720,392.869 94.607 C 393.656 94.455,394.060 94.031,394.400 93.000 C 394.654 92.230,395.025 91.600,395.223 91.600 C 395.422 91.600,395.708 91.110,395.858 90.512 C 396.008 89.913,396.488 88.819,396.924 88.079 L 397.717 86.735 394.447 83.448 L 391.177 80.160 389.992 75.380 C 389.340 72.751,388.805 70.195,388.803 69.700 C 388.801 68.967,388.577 68.800,387.596 68.800 C 386.242 68.800,382.800 67.316,382.800 66.732 C 382.800 66.524,382.620 66.464,382.400 66.600 C 382.180 66.736,382.000 66.694,382.000 66.507 C 382.000 66.320,381.415 65.883,380.700 65.535 C 377.233 63.852,372.884 61.395,371.869 60.546 C 371.247 60.026,370.452 59.600,370.101 59.600 C 369.750 59.600,369.167 59.333,368.806 59.006 C 368.445 58.679,366.819 57.708,365.192 56.849 C 362.341 55.343,362.218 55.217,361.763 53.343 C 361.504 52.275,360.887 50.410,360.392 49.200 C 359.897 47.990,359.215 46.314,358.875 45.476 C 358.535 44.638,357.704 43.576,357.029 43.114 C 355.801 42.277,353.489 40.197,351.899 38.500 C 351.435 38.005,350.818 37.600,350.528 37.600 C 350.238 37.600,349.998 37.375,349.995 37.100 C 349.992 36.825,349.362 36.193,348.595 35.696 C 347.828 35.199,347.200 34.614,347.200 34.396 C 347.200 34.178,347.007 34.000,346.771 34.000 C 346.536 34.000,346.092 33.775,345.785 33.500 C 344.570 32.410,344.023 32.000,343.784 32.000 C 343.544 32.000,338.723 28.589,334.601 25.502 C 333.500 24.678,332.465 24.003,332.300 24.002 C 332.135 24.001,331.667 23.685,331.260 23.300 C 329.987 22.096,329.062 21.423,327.100 20.277 L 325.200 19.166 325.180 23.283 M299.693 27.600 C 299.693 28.370,299.775 28.685,299.876 28.300 C 299.976 27.915,299.976 27.285,299.876 26.900 C 299.775 26.515,299.693 26.830,299.693 27.600 M300.493 35.600 C 300.493 36.370,300.575 36.685,300.676 36.300 C 300.776 35.915,300.776 35.285,300.676 34.900 C 300.575 34.515,300.493 34.830,300.493 35.600 M359.200 58.453 C 360.850 61.119,362.260 63.457,362.333 63.650 C 362.407 63.842,361.227 64.000,359.711 64.000 C 356.961 64.000,356.950 64.004,354.288 66.200 C 351.074 68.851,351.430 68.832,348.852 66.500 L 346.751 64.600 351.205 59.100 C 353.655 56.075,355.781 53.601,355.930 53.603 C 356.078 53.604,357.550 55.787,359.200 58.453 M142.323 205.933 C 136.427 210.192,132.039 213.884,132.019 214.600 C 131.999 215.326,141.760 264.857,142.247 266.500 C 142.587 267.649,142.993 267.296,143.103 265.756 C 143.160 264.962,143.329 264.114,143.480 263.871 C 143.630 263.628,143.817 262.793,143.896 262.015 C 143.975 261.237,144.467 259.160,144.989 257.400 C 145.512 255.640,146.064 253.570,146.217 252.800 C 146.369 252.030,146.603 251.220,146.736 251.000 C 147.575 249.611,147.537 243.875,146.657 239.126 C 146.318 237.297,145.932 234.630,145.800 233.200 C 145.667 231.770,145.208 228.826,144.780 226.657 C 144.351 224.488,144.000 221.555,144.000 220.140 C 144.000 218.724,143.745 216.269,143.434 214.683 C 143.123 213.097,142.757 211.080,142.620 210.200 C 142.484 209.320,142.278 208.121,142.162 207.535 C 142.001 206.717,142.135 206.411,142.739 206.219 C 143.172 206.082,143.627 205.706,143.750 205.385 C 143.874 205.063,143.936 204.815,143.887 204.833 C 143.839 204.851,143.135 205.346,142.323 205.933 " stroke="none" fill="#ebb861" fill-rule="evenodd"></path><path id="path3" d="M318.617 0.618 C 318.186 0.943,317.286 1.659,316.617 2.209 C 315.948 2.758,313.780 4.402,311.800 5.860 C 309.820 7.319,307.728 8.892,307.150 9.356 C 306.573 9.820,305.596 10.560,304.979 11.000 C 304.363 11.440,303.156 12.383,302.298 13.094 C 301.440 13.806,299.537 14.944,298.069 15.622 C 294.303 17.363,293.922 17.520,292.800 17.794 C 292.250 17.928,290.810 18.462,289.600 18.981 C 287.547 19.861,279.977 22.810,274.000 25.058 C 272.570 25.596,270.451 26.478,269.291 27.018 C 268.131 27.558,266.871 28.002,266.491 28.004 C 266.111 28.006,264.922 28.433,263.848 28.953 C 262.774 29.473,261.514 29.826,261.048 29.738 C 260.271 29.591,260.276 29.611,261.111 29.980 C 261.884 30.321,274.310 33.318,295.600 38.298 C 298.350 38.941,300.655 39.331,300.723 39.165 C 300.791 38.998,300.560 36.124,300.211 32.777 C 299.861 29.430,299.626 26.652,299.688 26.605 C 299.749 26.557,302.860 24.670,306.600 22.410 C 310.340 20.151,313.800 18.053,314.290 17.749 C 314.860 17.394,315.408 16.372,315.819 14.898 C 316.171 13.634,317.256 9.949,318.230 6.708 C 320.411 -0.552,320.424 -0.749,318.617 0.618 M219.786 26.930 C 218.914 27.420,217.432 28.071,216.494 28.377 C 215.556 28.682,214.589 29.172,214.345 29.466 C 214.102 29.760,213.719 30.000,213.495 30.000 C 213.271 30.000,212.348 30.343,211.444 30.762 C 210.540 31.181,208.450 32.150,206.800 32.916 C 205.150 33.682,202.720 34.786,201.400 35.370 C 200.080 35.954,198.685 36.604,198.300 36.816 C 196.437 37.839,196.371 37.869,191.405 39.998 C 189.197 40.944,188.168 40.891,175.600 39.185 C 172.630 38.782,168.580 38.339,166.600 38.201 C 164.620 38.063,160.030 37.527,156.400 37.010 C 150.570 36.180,142.488 35.175,140.200 34.996 C 136.444 34.701,128.875 33.804,124.600 33.146 C 112.278 31.252,109.558 31.318,106.000 33.599 C 105.088 34.183,97.937 38.165,96.800 38.721 C 96.250 38.990,94.900 39.755,93.800 40.421 C 92.700 41.086,91.080 41.992,90.200 42.434 C 89.320 42.876,87.970 43.602,87.200 44.047 C 83.492 46.192,81.758 47.149,78.322 48.945 C 76.275 50.014,74.330 51.122,74.000 51.405 C 73.670 51.688,72.770 52.207,72.000 52.558 C 71.230 52.909,70.042 53.539,69.359 53.957 C 68.677 54.375,66.517 55.565,64.559 56.601 C 62.602 57.637,60.730 58.705,60.400 58.975 C 60.070 59.245,59.167 59.755,58.393 60.108 C 57.072 60.710,55.925 62.141,52.400 67.583 C 51.850 68.432,50.320 70.697,49.000 72.616 C 47.680 74.535,46.420 76.382,46.200 76.721 C 45.817 77.311,42.950 81.558,39.579 86.528 C 38.711 87.809,38.000 89.024,38.000 89.228 C 38.000 89.433,37.832 89.600,37.627 89.600 C 37.422 89.600,37.150 89.928,37.022 90.329 C 36.895 90.731,36.478 91.416,36.095 91.851 C 35.713 92.287,35.220 92.929,35.000 93.278 C 34.780 93.626,33.340 95.750,31.800 97.997 C 30.260 100.243,28.698 102.623,28.330 103.284 C 27.961 103.945,27.318 104.871,26.902 105.343 C 26.190 106.149,20.370 114.704,17.860 118.635 C 16.950 120.060,16.571 121.409,15.980 125.328 C 15.573 128.028,15.051 131.080,14.820 132.110 C 14.589 133.141,14.308 135.112,14.194 136.492 C 14.081 137.871,13.552 141.520,13.019 144.600 C 12.486 147.680,11.745 152.000,11.373 154.200 C 11.001 156.400,10.649 158.470,10.591 158.800 C 10.532 159.130,10.362 160.660,10.211 162.200 C 10.060 163.740,9.584 166.890,9.153 169.200 C 8.721 171.510,8.282 174.120,8.176 175.000 C 8.071 175.880,7.724 178.130,7.406 180.000 C 7.089 181.870,6.540 185.560,6.187 188.200 C 5.834 190.840,5.376 193.655,5.169 194.456 C 4.798 195.893,3.715 203.088,3.402 206.200 C 3.244 207.771,2.844 210.207,1.174 219.800 C 0.714 222.440,0.261 225.860,0.167 227.400 L -0.004 230.200 1.567 225.400 C 2.432 222.760,10.631 196.570,19.789 167.200 C 28.947 137.830,36.620 113.229,36.840 112.531 C 37.165 111.505,39.862 109.247,50.921 100.746 C 58.444 94.961,66.069 89.097,67.865 87.713 L 71.129 85.196 90.837 110.298 C 101.677 124.104,115.039 141.125,120.531 148.122 C 126.023 155.118,130.655 160.698,130.824 160.522 C 130.994 160.345,132.514 156.780,134.202 152.600 C 141.508 134.516,143.295 130.182,143.563 129.897 C 143.853 129.586,144.654 130.387,159.757 146.100 C 164.568 151.105,168.629 155.200,168.781 155.200 C 168.933 155.200,169.349 152.995,169.707 150.300 C 170.064 147.605,171.725 135.230,173.398 122.800 C 175.071 110.370,176.640 98.679,176.884 96.821 L 177.327 93.442 188.661 78.114 C 199.387 63.608,200.551 61.857,210.342 45.493 C 223.391 23.681,222.520 25.393,219.786 26.930 " stroke="none" fill="#f1cb89" fill-rule="evenodd"></path></g></svg>